# Tiled2Unity generated file. Do not modify by hand.
# Wavefront file for 'mapa_carpa_lona_adentro_mesh_0002.obj'

# Vertices (Count = 56)
v -64 -80 0
v -80 -80 0
v -80 -64 0
v -64 -64 0
v -32 -80 0
v -48 -80 0
v -48 -64 0
v -32 -64 0
v 0 -80 0
v -16 -80 0
v -16 -64 0
v 0 -64 0
v -64 -64 0
v -80 -64 0
v -80 -48 0
v -64 -48 0
v 0 -64 0
v -16 -64 0
v -16 -48 0
v 0 -48 0
v -64 -48 0
v -80 -48 0
v -80 -32 0
v -64 -32 0
v 0 -48 0
v -16 -48 0
v -16 -32 0
v 0 -32 0
v -64 -32 0
v -80 -32 0
v -80 -16 0
v -64 -16 0
v 0 -32 0
v -16 -32 0
v -16 -16 0
v 0 -16 0
v -64 -16 0
v -80 -16 0
v -80 0 0
v -64 0 0
v -48 -16 0
v -64 -16 0
v -64 0 0
v -48 0 0
v -32 -16 0
v -48 -16 0
v -48 0 0
v -32 0 0
v -16 -16 0
v -32 -16 0
v -32 0 0
v -16 0 0
v 0 -16 0
v -16 -16 0
v -16 0 0
v 0 0 0

# Texture cooridinates (Count = 36)
vt 0.9307851 0.2585551
vt 0.947314 0.2585551
vt 0.947314 0.2889734
vt 0.9307851 0.2889734
vt 0.6322314 0.9372624
vt 0.6487603 0.9372624
vt 0.6487603 0.9676806
vt 0.6322314 0.9676806
vt 0.2634298 0.9695817
vt 0.2799587 0.9695817
vt 0.2799587 1
vt 0.2634298 1
vt 0.8780992 0.6140684
vt 0.8946281 0.6140684
vt 0.8946281 0.6444867
vt 0.8780992 0.6444867
vt 0.2107438 0.904943
vt 0.2272727 0.904943
vt 0.2272727 0.9353612
vt 0.2107438 0.9353612
vt 0.8780992 0.6463878
vt 0.8946281 0.6463878
vt 0.8946281 0.6768061
vt 0.8780992 0.6768061
vt 0.1756198 0.7756654
vt 0.1921488 0.7756654
vt 0.1921488 0.8060837
vt 0.1756198 0.8060837
vt 0.1756198 0.8403042
vt 0.1921488 0.8403042
vt 0.1921488 0.8707224
vt 0.1756198 0.8707224
vt 0.2107438 0.8079848
vt 0.2272727 0.8079848
vt 0.2272727 0.838403
vt 0.2107438 0.838403

# Normal
vn 0 0 -1

# Mesh description
g mapa_carpa_lona_adentro_mesh_0002

# Faces
f 1/1/1 2/2/1 3/3/1 4/4/1
f 5/5/1 6/6/1 7/7/1 8/8/1
f 9/1/1 10/2/1 11/3/1 12/4/1
f 13/1/1 14/2/1 15/3/1 16/4/1
f 17/1/1 18/2/1 19/3/1 20/4/1
f 21/9/1 22/10/1 23/11/1 24/12/1
f 25/13/1 26/14/1 27/15/1 28/16/1
f 29/17/1 30/18/1 31/19/1 32/20/1
f 33/21/1 34/22/1 35/23/1 36/24/1
f 37/25/1 38/26/1 39/27/1 40/28/1
f 41/29/1 42/30/1 43/31/1 44/32/1
f 45/29/1 46/30/1 47/31/1 48/32/1
f 49/29/1 50/30/1 51/31/1 52/32/1
f 53/33/1 54/34/1 55/35/1 56/36/1

