# Tiled2Unity generated file. Do not modify by hand.
# Wavefront file for 'mapa_inicio_aventura_mesh_0005.obj'

# Vertices (Count = 304)
v -208 -1008 0
v -224 -1008 0
v -224 -992 0
v -208 -992 0
v -192 -1008 0
v -208 -1008 0
v -208 -992 0
v -192 -992 0
v -176 -1008 0
v -192 -1008 0
v -192 -992 0
v -176 -992 0
v -160 -1008 0
v -176 -1008 0
v -176 -992 0
v -160 -992 0
v -144 -1008 0
v -160 -1008 0
v -160 -992 0
v -144 -992 0
v -128 -1008 0
v -144 -1008 0
v -144 -992 0
v -128 -992 0
v -208 -992 0
v -224 -992 0
v -224 -976 0
v -208 -976 0
v -192 -992 0
v -208 -992 0
v -208 -976 0
v -192 -976 0
v -176 -992 0
v -192 -992 0
v -192 -976 0
v -176 -976 0
v -160 -992 0
v -176 -992 0
v -176 -976 0
v -160 -976 0
v -144 -992 0
v -160 -992 0
v -160 -976 0
v -144 -976 0
v -128 -992 0
v -144 -992 0
v -144 -976 0
v -128 -976 0
v -208 -976 0
v -224 -976 0
v -224 -960 0
v -208 -960 0
v -192 -976 0
v -208 -976 0
v -208 -960 0
v -192 -960 0
v -176 -976 0
v -192 -976 0
v -192 -960 0
v -176 -960 0
v -160 -976 0
v -176 -976 0
v -176 -960 0
v -160 -960 0
v -144 -976 0
v -160 -976 0
v -160 -960 0
v -144 -960 0
v -128 -976 0
v -144 -976 0
v -144 -960 0
v -128 -960 0
v -208 -960 0
v -224 -960 0
v -224 -944 0
v -208 -944 0
v -192 -960 0
v -208 -960 0
v -208 -944 0
v -192 -944 0
v -176 -960 0
v -192 -960 0
v -192 -944 0
v -176 -944 0
v -160 -960 0
v -176 -960 0
v -176 -944 0
v -160 -944 0
v -144 -960 0
v -160 -960 0
v -160 -944 0
v -144 -944 0
v -128 -960 0
v -144 -960 0
v -144 -944 0
v -128 -944 0
v -208 -944 0
v -224 -944 0
v -224 -928 0
v -208 -928 0
v -192 -944 0
v -208 -944 0
v -208 -928 0
v -192 -928 0
v -176 -944 0
v -192 -944 0
v -192 -928 0
v -176 -928 0
v -160 -944 0
v -176 -944 0
v -176 -928 0
v -160 -928 0
v -144 -944 0
v -160 -944 0
v -160 -928 0
v -144 -928 0
v -128 -944 0
v -144 -944 0
v -144 -928 0
v -128 -928 0
v -208 -928 0
v -224 -928 0
v -224 -912 0
v -208 -912 0
v -192 -928 0
v -208 -928 0
v -208 -912 0
v -192 -912 0
v -176 -928 0
v -192 -928 0
v -192 -912 0
v -176 -912 0
v -160 -928 0
v -176 -928 0
v -176 -912 0
v -160 -912 0
v -144 -928 0
v -160 -928 0
v -160 -912 0
v -144 -912 0
v -128 -928 0
v -144 -928 0
v -144 -912 0
v -128 -912 0
v -208 -480 0
v -224 -480 0
v -224 -464 0
v -208 -464 0
v -192 -480 0
v -208 -480 0
v -208 -464 0
v -192 -464 0
v -176 -480 0
v -192 -480 0
v -192 -464 0
v -176 -464 0
v -160 -480 0
v -176 -480 0
v -176 -464 0
v -160 -464 0
v -144 -480 0
v -160 -480 0
v -160 -464 0
v -144 -464 0
v -128 -480 0
v -144 -480 0
v -144 -464 0
v -128 -464 0
v -208 -464 0
v -224 -464 0
v -224 -448 0
v -208 -448 0
v -192 -464 0
v -208 -464 0
v -208 -448 0
v -192 -448 0
v -176 -464 0
v -192 -464 0
v -192 -448 0
v -176 -448 0
v -160 -464 0
v -176 -464 0
v -176 -448 0
v -160 -448 0
v -144 -464 0
v -160 -464 0
v -160 -448 0
v -144 -448 0
v -128 -464 0
v -144 -464 0
v -144 -448 0
v -128 -448 0
v -208 -448 0
v -224 -448 0
v -224 -432 0
v -208 -432 0
v -192 -448 0
v -208 -448 0
v -208 -432 0
v -192 -432 0
v -176 -448 0
v -192 -448 0
v -192 -432 0
v -176 -432 0
v -160 -448 0
v -176 -448 0
v -176 -432 0
v -160 -432 0
v -144 -448 0
v -160 -448 0
v -160 -432 0
v -144 -432 0
v -128 -448 0
v -144 -448 0
v -144 -432 0
v -128 -432 0
v -208 -432 0
v -224 -432 0
v -224 -416 0
v -208 -416 0
v -192 -432 0
v -208 -432 0
v -208 -416 0
v -192 -416 0
v -176 -432 0
v -192 -432 0
v -192 -416 0
v -176 -416 0
v -160 -432 0
v -176 -432 0
v -176 -416 0
v -160 -416 0
v -144 -432 0
v -160 -432 0
v -160 -416 0
v -144 -416 0
v -128 -432 0
v -144 -432 0
v -144 -416 0
v -128 -416 0
v -208 -416 0
v -224 -416 0
v -224 -400 0
v -208 -400 0
v -192 -416 0
v -208 -416 0
v -208 -400 0
v -192 -400 0
v -176 -416 0
v -192 -416 0
v -192 -400 0
v -176 -400 0
v -160 -416 0
v -176 -416 0
v -176 -400 0
v -160 -400 0
v -144 -416 0
v -160 -416 0
v -160 -400 0
v -144 -400 0
v -128 -416 0
v -144 -416 0
v -144 -400 0
v -128 -400 0
v -208 -400 0
v -224 -400 0
v -224 -384 0
v -208 -384 0
v -192 -400 0
v -208 -400 0
v -208 -384 0
v -192 -384 0
v -176 -400 0
v -192 -400 0
v -192 -384 0
v -176 -384 0
v -160 -400 0
v -176 -400 0
v -176 -384 0
v -160 -384 0
v -144 -400 0
v -160 -400 0
v -160 -384 0
v -144 -384 0
v -128 -400 0
v -144 -400 0
v -144 -384 0
v -128 -384 0
v -960 -144 0
v -976 -144 0
v -976 -128 0
v -960 -128 0
v -944 -144 0
v -960 -144 0
v -960 -128 0
v -944 -128 0
v -960 -128 0
v -976 -128 0
v -976 -112 0
v -960 -112 0
v -944 -128 0
v -960 -128 0
v -960 -112 0
v -944 -112 0

# Texture cooridinates (Count = 76)
vt 0.9307851 0.6140684
vt 0.947314 0.6140684
vt 0.947314 0.6444867
vt 0.9307851 0.6444867
vt 0.9132231 0.6140684
vt 0.9297521 0.6140684
vt 0.9297521 0.6444867
vt 0.9132231 0.6444867
vt 0.8956612 0.6140684
vt 0.9121901 0.6140684
vt 0.9121901 0.6444867
vt 0.8956612 0.6444867
vt 0.9307851 0.6463878
vt 0.947314 0.6463878
vt 0.947314 0.6768061
vt 0.9307851 0.6768061
vt 0.9132231 0.6463878
vt 0.9297521 0.6463878
vt 0.9297521 0.6768061
vt 0.9132231 0.6768061
vt 0.8956612 0.6463878
vt 0.9121901 0.6463878
vt 0.9121901 0.6768061
vt 0.8956612 0.6768061
vt 0.07024793 0.904943
vt 0.08677686 0.904943
vt 0.08677686 0.9353612
vt 0.07024793 0.9353612
vt 0.05268595 0.904943
vt 0.06921487 0.904943
vt 0.06921487 0.9353612
vt 0.05268595 0.9353612
vt 0.03512397 0.904943
vt 0.05165289 0.904943
vt 0.05165289 0.9353612
vt 0.03512397 0.9353612
vt 0.07024793 0.9372624
vt 0.08677686 0.9372624
vt 0.08677686 0.9676806
vt 0.07024793 0.9676806
vt 0.05268595 0.9372624
vt 0.06921487 0.9372624
vt 0.06921487 0.9676806
vt 0.05268595 0.9676806
vt 0.03512397 0.9372624
vt 0.05165289 0.9372624
vt 0.05165289 0.9676806
vt 0.03512397 0.9676806
vt 0.07024793 0.9695817
vt 0.08677686 0.9695817
vt 0.08677686 1
vt 0.07024793 1
vt 0.05268595 0.9695817
vt 0.06921487 0.9695817
vt 0.06921487 1
vt 0.05268595 1
vt 0.03512397 0.9695817
vt 0.05165289 0.9695817
vt 0.05165289 1
vt 0.03512397 1
vt 0.8605372 0.6140684
vt 0.8770661 0.6140684
vt 0.8770661 0.6444867
vt 0.8605372 0.6444867
vt 0.8429752 0.6140684
vt 0.8595041 0.6140684
vt 0.8595041 0.6444867
vt 0.8429752 0.6444867
vt 0.8605372 0.6463878
vt 0.8770661 0.6463878
vt 0.8770661 0.6768061
vt 0.8605372 0.6768061
vt 0.8429752 0.6463878
vt 0.8595041 0.6463878
vt 0.8595041 0.6768061
vt 0.8429752 0.6768061

# Normal
vn 0 0 -1

# Mesh description
g mapa_inicio_aventura_mesh_0005

# Faces
f 1/1/1 2/2/1 3/3/1 4/4/1
f 5/5/1 6/6/1 7/7/1 8/8/1
f 9/9/1 10/10/1 11/11/1 12/12/1
f 13/1/1 14/2/1 15/3/1 16/4/1
f 17/5/1 18/6/1 19/7/1 20/8/1
f 21/9/1 22/10/1 23/11/1 24/12/1
f 25/13/1 26/14/1 27/15/1 28/16/1
f 29/17/1 30/18/1 31/19/1 32/20/1
f 33/21/1 34/22/1 35/23/1 36/24/1
f 37/13/1 38/14/1 39/15/1 40/16/1
f 41/17/1 42/18/1 43/19/1 44/20/1
f 45/21/1 46/22/1 47/23/1 48/24/1
f 49/1/1 50/2/1 51/3/1 52/4/1
f 53/5/1 54/6/1 55/7/1 56/8/1
f 57/9/1 58/10/1 59/11/1 60/12/1
f 61/1/1 62/2/1 63/3/1 64/4/1
f 65/5/1 66/6/1 67/7/1 68/8/1
f 69/9/1 70/10/1 71/11/1 72/12/1
f 73/13/1 74/14/1 75/15/1 76/16/1
f 77/17/1 78/18/1 79/19/1 80/20/1
f 81/21/1 82/22/1 83/23/1 84/24/1
f 85/13/1 86/14/1 87/15/1 88/16/1
f 89/17/1 90/18/1 91/19/1 92/20/1
f 93/21/1 94/22/1 95/23/1 96/24/1
f 97/1/1 98/2/1 99/3/1 100/4/1
f 101/5/1 102/6/1 103/7/1 104/8/1
f 105/9/1 106/10/1 107/11/1 108/12/1
f 109/1/1 110/2/1 111/3/1 112/4/1
f 113/5/1 114/6/1 115/7/1 116/8/1
f 117/9/1 118/10/1 119/11/1 120/12/1
f 121/13/1 122/14/1 123/15/1 124/16/1
f 125/17/1 126/18/1 127/19/1 128/20/1
f 129/21/1 130/22/1 131/23/1 132/24/1
f 133/13/1 134/14/1 135/15/1 136/16/1
f 137/17/1 138/18/1 139/19/1 140/20/1
f 141/21/1 142/22/1 143/23/1 144/24/1
f 145/25/1 146/26/1 147/27/1 148/28/1
f 149/29/1 150/30/1 151/31/1 152/32/1
f 153/29/1 154/30/1 155/31/1 156/32/1
f 157/29/1 158/30/1 159/31/1 160/32/1
f 161/29/1 162/30/1 163/31/1 164/32/1
f 165/33/1 166/34/1 167/35/1 168/36/1
f 169/37/1 170/38/1 171/39/1 172/40/1
f 173/41/1 174/42/1 175/43/1 176/44/1
f 177/41/1 178/42/1 179/43/1 180/44/1
f 181/41/1 182/42/1 183/43/1 184/44/1
f 185/41/1 186/42/1 187/43/1 188/44/1
f 189/45/1 190/46/1 191/47/1 192/48/1
f 193/37/1 194/38/1 195/39/1 196/40/1
f 197/41/1 198/42/1 199/43/1 200/44/1
f 201/41/1 202/42/1 203/43/1 204/44/1
f 205/41/1 206/42/1 207/43/1 208/44/1
f 209/41/1 210/42/1 211/43/1 212/44/1
f 213/45/1 214/46/1 215/47/1 216/48/1
f 217/37/1 218/38/1 219/39/1 220/40/1
f 221/41/1 222/42/1 223/43/1 224/44/1
f 225/41/1 226/42/1 227/43/1 228/44/1
f 229/41/1 230/42/1 231/43/1 232/44/1
f 233/41/1 234/42/1 235/43/1 236/44/1
f 237/45/1 238/46/1 239/47/1 240/48/1
f 241/37/1 242/38/1 243/39/1 244/40/1
f 245/41/1 246/42/1 247/43/1 248/44/1
f 249/41/1 250/42/1 251/43/1 252/44/1
f 253/41/1 254/42/1 255/43/1 256/44/1
f 257/41/1 258/42/1 259/43/1 260/44/1
f 261/45/1 262/46/1 263/47/1 264/48/1
f 265/49/1 266/50/1 267/51/1 268/52/1
f 269/53/1 270/54/1 271/55/1 272/56/1
f 273/53/1 274/54/1 275/55/1 276/56/1
f 277/53/1 278/54/1 279/55/1 280/56/1
f 281/53/1 282/54/1 283/55/1 284/56/1
f 285/57/1 286/58/1 287/59/1 288/60/1
f 289/61/1 290/62/1 291/63/1 292/64/1
f 293/65/1 294/66/1 295/67/1 296/68/1
f 297/69/1 298/70/1 299/71/1 300/72/1
f 301/73/1 302/74/1 303/75/1 304/76/1

