# Tiled2Unity generated file. Do not modify by hand.
# Wavefront file for 'mapa_inicio_aventura_mesh_0003.obj'

# Vertices (Count = 864)
v -624 -928 0
v -640 -928 0
v -640 -912 0
v -624 -912 0
v -64 -816 0
v -80 -816 0
v -80 -800 0
v -64 -800 0
v -48 -816 0
v -64 -816 0
v -64 -800 0
v -48 -800 0
v -32 -816 0
v -48 -816 0
v -48 -800 0
v -32 -800 0
v -16 -816 0
v -32 -816 0
v -32 -800 0
v -16 -800 0
v 0 -816 0
v -16 -816 0
v -16 -800 0
v 0 -800 0
v -64 -800 0
v -80 -800 0
v -80 -784 0
v -64 -784 0
v -48 -800 0
v -64 -800 0
v -64 -784 0
v -48 -784 0
v -32 -800 0
v -48 -800 0
v -48 -784 0
v -32 -784 0
v -16 -800 0
v -32 -800 0
v -32 -784 0
v -16 -784 0
v 0 -800 0
v -16 -800 0
v -16 -784 0
v 0 -784 0
v -64 -784 0
v -80 -784 0
v -80 -768 0
v -64 -768 0
v -48 -784 0
v -64 -784 0
v -64 -768 0
v -48 -768 0
v -32 -784 0
v -48 -784 0
v -48 -768 0
v -32 -768 0
v -16 -784 0
v -32 -784 0
v -32 -768 0
v -16 -768 0
v 0 -784 0
v -16 -784 0
v -16 -768 0
v 0 -768 0
v -64 -768 0
v -80 -768 0
v -80 -752 0
v -64 -752 0
v -48 -768 0
v -64 -768 0
v -64 -752 0
v -48 -752 0
v -32 -768 0
v -48 -768 0
v -48 -752 0
v -32 -752 0
v -16 -768 0
v -32 -768 0
v -32 -752 0
v -16 -752 0
v 0 -768 0
v -16 -768 0
v -16 -752 0
v 0 -752 0
v -64 -752 0
v -80 -752 0
v -80 -736 0
v -64 -736 0
v -48 -752 0
v -64 -752 0
v -64 -736 0
v -48 -736 0
v -32 -752 0
v -48 -752 0
v -48 -736 0
v -32 -736 0
v -16 -752 0
v -32 -752 0
v -32 -736 0
v -16 -736 0
v 0 -752 0
v -16 -752 0
v -16 -736 0
v 0 -736 0
v -336 -576 0
v -352 -576 0
v -352 -560 0
v -336 -560 0
v -320 -576 0
v -336 -576 0
v -336 -560 0
v -320 -560 0
v -304 -576 0
v -320 -576 0
v -320 -560 0
v -304 -560 0
v -288 -576 0
v -304 -576 0
v -304 -560 0
v -288 -560 0
v -272 -576 0
v -288 -576 0
v -288 -560 0
v -272 -560 0
v -256 -576 0
v -272 -576 0
v -272 -560 0
v -256 -560 0
v -240 -576 0
v -256 -576 0
v -256 -560 0
v -240 -560 0
v -224 -576 0
v -240 -576 0
v -240 -560 0
v -224 -560 0
v -208 -576 0
v -224 -576 0
v -224 -560 0
v -208 -560 0
v -336 -560 0
v -352 -560 0
v -352 -544 0
v -336 -544 0
v -320 -560 0
v -336 -560 0
v -336 -544 0
v -320 -544 0
v -304 -560 0
v -320 -560 0
v -320 -544 0
v -304 -544 0
v -288 -560 0
v -304 -560 0
v -304 -544 0
v -288 -544 0
v -272 -560 0
v -288 -560 0
v -288 -544 0
v -272 -544 0
v -256 -560 0
v -272 -560 0
v -272 -544 0
v -256 -544 0
v -240 -560 0
v -256 -560 0
v -256 -544 0
v -240 -544 0
v -224 -560 0
v -240 -560 0
v -240 -544 0
v -224 -544 0
v -208 -560 0
v -224 -560 0
v -224 -544 0
v -208 -544 0
v -336 -544 0
v -352 -544 0
v -352 -528 0
v -336 -528 0
v -320 -544 0
v -336 -544 0
v -336 -528 0
v -320 -528 0
v -304 -544 0
v -320 -544 0
v -320 -528 0
v -304 -528 0
v -288 -544 0
v -304 -544 0
v -304 -528 0
v -288 -528 0
v -272 -544 0
v -288 -544 0
v -288 -528 0
v -272 -528 0
v -256 -544 0
v -272 -544 0
v -272 -528 0
v -256 -528 0
v -240 -544 0
v -256 -544 0
v -256 -528 0
v -240 -528 0
v -224 -544 0
v -240 -544 0
v -240 -528 0
v -224 -528 0
v -208 -544 0
v -224 -544 0
v -224 -528 0
v -208 -528 0
v -304 -528 0
v -320 -528 0
v -320 -512 0
v -304 -512 0
v -288 -528 0
v -304 -528 0
v -304 -512 0
v -288 -512 0
v -272 -528 0
v -288 -528 0
v -288 -512 0
v -272 -512 0
v -256 -528 0
v -272 -528 0
v -272 -512 0
v -256 -512 0
v -240 -528 0
v -256 -528 0
v -256 -512 0
v -240 -512 0
v -304 -512 0
v -320 -512 0
v -320 -496 0
v -304 -496 0
v -288 -512 0
v -304 -512 0
v -304 -496 0
v -288 -496 0
v -272 -512 0
v -288 -512 0
v -288 -496 0
v -272 -496 0
v -256 -512 0
v -272 -512 0
v -272 -496 0
v -256 -496 0
v -240 -512 0
v -256 -512 0
v -256 -496 0
v -240 -496 0
v -64 -464 0
v -80 -464 0
v -80 -448 0
v -64 -448 0
v -48 -464 0
v -64 -464 0
v -64 -448 0
v -48 -448 0
v -32 -464 0
v -48 -464 0
v -48 -448 0
v -32 -448 0
v -16 -464 0
v -32 -464 0
v -32 -448 0
v -16 -448 0
v 0 -464 0
v -16 -464 0
v -16 -448 0
v 0 -448 0
v -64 -448 0
v -80 -448 0
v -80 -432 0
v -64 -432 0
v -48 -448 0
v -64 -448 0
v -64 -432 0
v -48 -432 0
v -32 -448 0
v -48 -448 0
v -48 -432 0
v -32 -432 0
v -16 -448 0
v -32 -448 0
v -32 -432 0
v -16 -432 0
v 0 -448 0
v -16 -448 0
v -16 -432 0
v 0 -432 0
v -64 -432 0
v -80 -432 0
v -80 -416 0
v -64 -416 0
v -48 -432 0
v -64 -432 0
v -64 -416 0
v -48 -416 0
v -32 -432 0
v -48 -432 0
v -48 -416 0
v -32 -416 0
v -16 -432 0
v -32 -432 0
v -32 -416 0
v -16 -416 0
v 0 -432 0
v -16 -432 0
v -16 -416 0
v 0 -416 0
v -64 -416 0
v -80 -416 0
v -80 -400 0
v -64 -400 0
v -48 -416 0
v -64 -416 0
v -64 -400 0
v -48 -400 0
v -32 -416 0
v -48 -416 0
v -48 -400 0
v -32 -400 0
v -16 -416 0
v -32 -416 0
v -32 -400 0
v -16 -400 0
v 0 -416 0
v -16 -416 0
v -16 -400 0
v 0 -400 0
v -64 -400 0
v -80 -400 0
v -80 -384 0
v -64 -384 0
v -48 -400 0
v -64 -400 0
v -64 -384 0
v -48 -384 0
v -32 -400 0
v -48 -400 0
v -48 -384 0
v -32 -384 0
v -16 -400 0
v -32 -400 0
v -32 -384 0
v -16 -384 0
v 0 -400 0
v -16 -400 0
v -16 -384 0
v 0 -384 0
v -512 -176 0
v -528 -176 0
v -528 -160 0
v -512 -160 0
v -496 -176 0
v -512 -176 0
v -512 -160 0
v -496 -160 0
v -480 -176 0
v -496 -176 0
v -496 -160 0
v -480 -160 0
v -464 -176 0
v -480 -176 0
v -480 -160 0
v -464 -160 0
v -448 -176 0
v -464 -176 0
v -464 -160 0
v -448 -160 0
v -432 -176 0
v -448 -176 0
v -448 -160 0
v -432 -160 0
v -416 -176 0
v -432 -176 0
v -432 -160 0
v -416 -160 0
v -400 -176 0
v -416 -176 0
v -416 -160 0
v -400 -160 0
v -384 -176 0
v -400 -176 0
v -400 -160 0
v -384 -160 0
v -304 -176 0
v -320 -176 0
v -320 -160 0
v -304 -160 0
v -288 -176 0
v -304 -176 0
v -304 -160 0
v -288 -160 0
v -272 -176 0
v -288 -176 0
v -288 -160 0
v -272 -160 0
v -256 -176 0
v -272 -176 0
v -272 -160 0
v -256 -160 0
v -240 -176 0
v -256 -176 0
v -256 -160 0
v -240 -160 0
v -224 -176 0
v -240 -176 0
v -240 -160 0
v -224 -160 0
v -208 -176 0
v -224 -176 0
v -224 -160 0
v -208 -160 0
v -192 -176 0
v -208 -176 0
v -208 -160 0
v -192 -160 0
v -176 -176 0
v -192 -176 0
v -192 -160 0
v -176 -160 0
v -160 -176 0
v -176 -176 0
v -176 -160 0
v -160 -160 0
v -144 -176 0
v -160 -176 0
v -160 -160 0
v -144 -160 0
v -128 -176 0
v -144 -176 0
v -144 -160 0
v -128 -160 0
v -112 -176 0
v -128 -176 0
v -128 -160 0
v -112 -160 0
v -96 -176 0
v -112 -176 0
v -112 -160 0
v -96 -160 0
v -80 -176 0
v -96 -176 0
v -96 -160 0
v -80 -160 0
v -64 -176 0
v -80 -176 0
v -80 -160 0
v -64 -160 0
v -48 -176 0
v -64 -176 0
v -64 -160 0
v -48 -160 0
v -32 -176 0
v -48 -176 0
v -48 -160 0
v -32 -160 0
v -16 -176 0
v -32 -176 0
v -32 -160 0
v -16 -160 0
v 0 -176 0
v -16 -176 0
v -16 -160 0
v 0 -160 0
v -512 -160 0
v -528 -160 0
v -528 -144 0
v -512 -144 0
v -496 -160 0
v -512 -160 0
v -512 -144 0
v -496 -144 0
v -480 -160 0
v -496 -160 0
v -496 -144 0
v -480 -144 0
v -464 -160 0
v -480 -160 0
v -480 -144 0
v -464 -144 0
v -448 -160 0
v -464 -160 0
v -464 -144 0
v -448 -144 0
v -432 -160 0
v -448 -160 0
v -448 -144 0
v -432 -144 0
v -416 -160 0
v -432 -160 0
v -432 -144 0
v -416 -144 0
v -400 -160 0
v -416 -160 0
v -416 -144 0
v -400 -144 0
v -384 -160 0
v -400 -160 0
v -400 -144 0
v -384 -144 0
v -304 -160 0
v -320 -160 0
v -320 -144 0
v -304 -144 0
v -288 -160 0
v -304 -160 0
v -304 -144 0
v -288 -144 0
v -272 -160 0
v -288 -160 0
v -288 -144 0
v -272 -144 0
v -256 -160 0
v -272 -160 0
v -272 -144 0
v -256 -144 0
v -240 -160 0
v -256 -160 0
v -256 -144 0
v -240 -144 0
v -224 -160 0
v -240 -160 0
v -240 -144 0
v -224 -144 0
v -208 -160 0
v -224 -160 0
v -224 -144 0
v -208 -144 0
v -192 -160 0
v -208 -160 0
v -208 -144 0
v -192 -144 0
v -176 -160 0
v -192 -160 0
v -192 -144 0
v -176 -144 0
v -160 -160 0
v -176 -160 0
v -176 -144 0
v -160 -144 0
v -144 -160 0
v -160 -160 0
v -160 -144 0
v -144 -144 0
v -128 -160 0
v -144 -160 0
v -144 -144 0
v -128 -144 0
v -112 -160 0
v -128 -160 0
v -128 -144 0
v -112 -144 0
v -96 -160 0
v -112 -160 0
v -112 -144 0
v -96 -144 0
v -80 -160 0
v -96 -160 0
v -96 -144 0
v -80 -144 0
v -64 -160 0
v -80 -160 0
v -80 -144 0
v -64 -144 0
v -48 -160 0
v -64 -160 0
v -64 -144 0
v -48 -144 0
v -32 -160 0
v -48 -160 0
v -48 -144 0
v -32 -144 0
v -16 -160 0
v -32 -160 0
v -32 -144 0
v -16 -144 0
v 0 -160 0
v -16 -160 0
v -16 -144 0
v 0 -144 0
v -512 -144 0
v -528 -144 0
v -528 -128 0
v -512 -128 0
v -496 -144 0
v -512 -144 0
v -512 -128 0
v -496 -128 0
v -480 -144 0
v -496 -144 0
v -496 -128 0
v -480 -128 0
v -464 -144 0
v -480 -144 0
v -480 -128 0
v -464 -128 0
v -448 -144 0
v -464 -144 0
v -464 -128 0
v -448 -128 0
v -432 -144 0
v -448 -144 0
v -448 -128 0
v -432 -128 0
v -416 -144 0
v -432 -144 0
v -432 -128 0
v -416 -128 0
v -400 -144 0
v -416 -144 0
v -416 -128 0
v -400 -128 0
v -384 -144 0
v -400 -144 0
v -400 -128 0
v -384 -128 0
v -304 -144 0
v -320 -144 0
v -320 -128 0
v -304 -128 0
v -288 -144 0
v -304 -144 0
v -304 -128 0
v -288 -128 0
v -272 -144 0
v -288 -144 0
v -288 -128 0
v -272 -128 0
v -256 -144 0
v -272 -144 0
v -272 -128 0
v -256 -128 0
v -240 -144 0
v -256 -144 0
v -256 -128 0
v -240 -128 0
v -224 -144 0
v -240 -144 0
v -240 -128 0
v -224 -128 0
v -208 -144 0
v -224 -144 0
v -224 -128 0
v -208 -128 0
v -192 -144 0
v -208 -144 0
v -208 -128 0
v -192 -128 0
v -176 -144 0
v -192 -144 0
v -192 -128 0
v -176 -128 0
v -160 -144 0
v -176 -144 0
v -176 -128 0
v -160 -128 0
v -144 -144 0
v -160 -144 0
v -160 -128 0
v -144 -128 0
v -128 -144 0
v -144 -144 0
v -144 -128 0
v -128 -128 0
v -112 -144 0
v -128 -144 0
v -128 -128 0
v -112 -128 0
v -96 -144 0
v -112 -144 0
v -112 -128 0
v -96 -128 0
v -80 -144 0
v -96 -144 0
v -96 -128 0
v -80 -128 0
v -64 -144 0
v -80 -144 0
v -80 -128 0
v -64 -128 0
v -48 -144 0
v -64 -144 0
v -64 -128 0
v -48 -128 0
v -32 -144 0
v -48 -144 0
v -48 -128 0
v -32 -128 0
v -16 -144 0
v -32 -144 0
v -32 -128 0
v -16 -128 0
v 0 -144 0
v -16 -144 0
v -16 -128 0
v 0 -128 0
v -304 -128 0
v -320 -128 0
v -320 -112 0
v -304 -112 0
v -288 -128 0
v -304 -128 0
v -304 -112 0
v -288 -112 0
v -272 -128 0
v -288 -128 0
v -288 -112 0
v -272 -112 0
v -256 -128 0
v -272 -128 0
v -272 -112 0
v -256 -112 0
v -240 -128 0
v -256 -128 0
v -256 -112 0
v -240 -112 0
v -224 -128 0
v -240 -128 0
v -240 -112 0
v -224 -112 0
v -208 -128 0
v -224 -128 0
v -224 -112 0
v -208 -112 0
v -192 -128 0
v -208 -128 0
v -208 -112 0
v -192 -112 0
v -176 -128 0
v -192 -128 0
v -192 -112 0
v -176 -112 0
v -160 -128 0
v -176 -128 0
v -176 -112 0
v -160 -112 0
v -144 -128 0
v -160 -128 0
v -160 -112 0
v -144 -112 0
v -128 -128 0
v -144 -128 0
v -144 -112 0
v -128 -112 0
v -112 -128 0
v -128 -128 0
v -128 -112 0
v -112 -112 0
v -96 -128 0
v -112 -128 0
v -112 -112 0
v -96 -112 0
v -80 -128 0
v -96 -128 0
v -96 -112 0
v -80 -112 0
v -64 -128 0
v -80 -128 0
v -80 -112 0
v -64 -112 0
v -48 -128 0
v -64 -128 0
v -64 -112 0
v -48 -112 0
v -32 -128 0
v -48 -128 0
v -48 -112 0
v -32 -112 0
v -16 -128 0
v -32 -128 0
v -32 -112 0
v -16 -112 0
v 0 -128 0
v -16 -128 0
v -16 -112 0
v 0 -112 0
v -304 -112 0
v -320 -112 0
v -320 -96 0
v -304 -96 0
v -288 -112 0
v -304 -112 0
v -304 -96 0
v -288 -96 0
v -272 -112 0
v -288 -112 0
v -288 -96 0
v -272 -96 0
v -256 -112 0
v -272 -112 0
v -272 -96 0
v -256 -96 0
v -240 -112 0
v -256 -112 0
v -256 -96 0
v -240 -96 0
v -224 -112 0
v -240 -112 0
v -240 -96 0
v -224 -96 0
v -208 -112 0
v -224 -112 0
v -224 -96 0
v -208 -96 0
v -192 -112 0
v -208 -112 0
v -208 -96 0
v -192 -96 0
v -176 -112 0
v -192 -112 0
v -192 -96 0
v -176 -96 0
v -160 -112 0
v -176 -112 0
v -176 -96 0
v -160 -96 0
v -144 -112 0
v -160 -112 0
v -160 -96 0
v -144 -96 0
v -128 -112 0
v -144 -112 0
v -144 -96 0
v -128 -96 0
v -112 -112 0
v -128 -112 0
v -128 -96 0
v -112 -96 0
v -96 -112 0
v -112 -112 0
v -112 -96 0
v -96 -96 0
v -80 -112 0
v -96 -112 0
v -96 -96 0
v -80 -96 0
v -64 -112 0
v -80 -112 0
v -80 -96 0
v -64 -96 0
v -48 -112 0
v -64 -112 0
v -64 -96 0
v -48 -96 0
v -32 -112 0
v -48 -112 0
v -48 -96 0
v -32 -96 0
v -16 -112 0
v -32 -112 0
v -32 -96 0
v -16 -96 0
v 0 -112 0
v -16 -112 0
v -16 -96 0
v 0 -96 0
v -560 -96 0
v -576 -96 0
v -576 -80 0
v -560 -80 0

# Texture cooridinates (Count = 96)
vt 0.675 0.3611111
vt 0.7 0.3611111
vt 0.7 0.3888889
vt 0.675 0.3888889
vt 0.25 0.8611111
vt 0.275 0.8611111
vt 0.275 0.8888889
vt 0.25 0.8888889
vt 0.225 0.8611111
vt 0.225 0.8888889
vt 0.2 0.8611111
vt 0.2 0.8888889
vt 0.175 0.8611111
vt 0.175 0.8888889
vt 0.15 0.8611111
vt 0.15 0.8888889
vt 0.275 0.9166667
vt 0.25 0.9166667
vt 0.225 0.9166667
vt 0.2 0.9166667
vt 0.175 0.9166667
vt 0.15 0.9166667
vt 0.275 0.9444444
vt 0.25 0.9444444
vt 0.225 0.9444444
vt 0.2 0.9444444
vt 0.175 0.9444444
vt 0.15 0.9444444
vt 0.275 0.9722222
vt 0.25 0.9722222
vt 0.225 0.9722222
vt 0.2 0.9722222
vt 0.175 0.9722222
vt 0.15 0.9722222
vt 0.275 1
vt 0.25 1
vt 0.225 1
vt 0.2 1
vt 0.175 1
vt 0.15 1
vt 0.35 0.7777778
vt 0.375 0.7777778
vt 0.375 0.8055556
vt 0.35 0.8055556
vt 0.325 0.7777778
vt 0.325 0.8055556
vt 0.375 0.8333333
vt 0.35 0.8333333
vt 0.325 0.8333333
vt 0.375 0.8611111
vt 0.35 0.8611111
vt 0.325 0.8611111
vt 0.75 0.6666666
vt 0.775 0.6666666
vt 0.775 0.6944444
vt 0.75 0.6944444
vt 0.725 0.6666666
vt 0.725 0.6944444
vt 0.7 0.6666666
vt 0.7 0.6944444
vt 0.675 0.6666666
vt 0.675 0.6944444
vt 0.65 0.6666666
vt 0.65 0.6944444
vt 0.625 0.6666666
vt 0.625 0.6944444
vt 0.6 0.6666666
vt 0.6 0.6944444
vt 0.575 0.6666666
vt 0.575 0.6944444
vt 0.55 0.6666666
vt 0.55 0.6944444
vt 0.775 0.7222222
vt 0.75 0.7222222
vt 0.725 0.7222222
vt 0.7 0.7222222
vt 0.675 0.7222222
vt 0.65 0.7222222
vt 0.625 0.7222222
vt 0.6 0.7222222
vt 0.575 0.7222222
vt 0.55 0.7222222
vt 0.775 0.75
vt 0.75 0.75
vt 0.725 0.75
vt 0.7 0.75
vt 0.675 0.75
vt 0.65 0.75
vt 0.625 0.75
vt 0.6 0.75
vt 0.575 0.75
vt 0.55 0.75
vt 0.175 0.6388889
vt 0.2 0.6388889
vt 0.2 0.6666666
vt 0.175 0.6666666

# Normal
vn 0 0 -1

# Mesh description
g mapa_inicio_aventura_mesh_0003

# Faces
f 1/1/1 2/2/1 3/3/1 4/4/1
f 5/5/1 6/6/1 7/7/1 8/8/1
f 9/9/1 10/5/1 11/8/1 12/10/1
f 13/11/1 14/9/1 15/10/1 16/12/1
f 17/13/1 18/11/1 19/12/1 20/14/1
f 21/15/1 22/13/1 23/14/1 24/16/1
f 25/8/1 26/7/1 27/17/1 28/18/1
f 29/10/1 30/8/1 31/18/1 32/19/1
f 33/12/1 34/10/1 35/19/1 36/20/1
f 37/14/1 38/12/1 39/20/1 40/21/1
f 41/16/1 42/14/1 43/21/1 44/22/1
f 45/18/1 46/17/1 47/23/1 48/24/1
f 49/19/1 50/18/1 51/24/1 52/25/1
f 53/20/1 54/19/1 55/25/1 56/26/1
f 57/21/1 58/20/1 59/26/1 60/27/1
f 61/22/1 62/21/1 63/27/1 64/28/1
f 65/24/1 66/23/1 67/29/1 68/30/1
f 69/25/1 70/24/1 71/30/1 72/31/1
f 73/26/1 74/25/1 75/31/1 76/32/1
f 77/27/1 78/26/1 79/32/1 80/33/1
f 81/28/1 82/27/1 83/33/1 84/34/1
f 85/30/1 86/29/1 87/35/1 88/36/1
f 89/31/1 90/30/1 91/36/1 92/37/1
f 93/32/1 94/31/1 95/37/1 96/38/1
f 97/33/1 98/32/1 99/38/1 100/39/1
f 101/34/1 102/33/1 103/39/1 104/40/1
f 105/41/1 106/42/1 107/43/1 108/44/1
f 109/45/1 110/41/1 111/44/1 112/46/1
f 113/5/1 114/6/1 115/7/1 116/8/1
f 117/9/1 118/5/1 119/8/1 120/10/1
f 121/11/1 122/9/1 123/10/1 124/12/1
f 125/13/1 126/11/1 127/12/1 128/14/1
f 129/15/1 130/13/1 131/14/1 132/16/1
f 133/41/1 134/42/1 135/43/1 136/44/1
f 137/45/1 138/41/1 139/44/1 140/46/1
f 141/44/1 142/43/1 143/47/1 144/48/1
f 145/46/1 146/44/1 147/48/1 148/49/1
f 149/8/1 150/7/1 151/17/1 152/18/1
f 153/10/1 154/8/1 155/18/1 156/19/1
f 157/12/1 158/10/1 159/19/1 160/20/1
f 161/14/1 162/12/1 163/20/1 164/21/1
f 165/16/1 166/14/1 167/21/1 168/22/1
f 169/44/1 170/43/1 171/47/1 172/48/1
f 173/46/1 174/44/1 175/48/1 176/49/1
f 177/48/1 178/47/1 179/50/1 180/51/1
f 181/49/1 182/48/1 183/51/1 184/52/1
f 185/18/1 186/17/1 187/23/1 188/24/1
f 189/19/1 190/18/1 191/24/1 192/25/1
f 193/20/1 194/19/1 195/25/1 196/26/1
f 197/21/1 198/20/1 199/26/1 200/27/1
f 201/22/1 202/21/1 203/27/1 204/28/1
f 205/48/1 206/47/1 207/50/1 208/51/1
f 209/49/1 210/48/1 211/51/1 212/52/1
f 213/24/1 214/23/1 215/29/1 216/30/1
f 217/25/1 218/24/1 219/30/1 220/31/1
f 221/26/1 222/25/1 223/31/1 224/32/1
f 225/27/1 226/26/1 227/32/1 228/33/1
f 229/28/1 230/27/1 231/33/1 232/34/1
f 233/30/1 234/29/1 235/35/1 236/36/1
f 237/31/1 238/30/1 239/36/1 240/37/1
f 241/32/1 242/31/1 243/37/1 244/38/1
f 245/33/1 246/32/1 247/38/1 248/39/1
f 249/34/1 250/33/1 251/39/1 252/40/1
f 253/5/1 254/6/1 255/7/1 256/8/1
f 257/9/1 258/5/1 259/8/1 260/10/1
f 261/11/1 262/9/1 263/10/1 264/12/1
f 265/13/1 266/11/1 267/12/1 268/14/1
f 269/15/1 270/13/1 271/14/1 272/16/1
f 273/8/1 274/7/1 275/17/1 276/18/1
f 277/10/1 278/8/1 279/18/1 280/19/1
f 281/12/1 282/10/1 283/19/1 284/20/1
f 285/14/1 286/12/1 287/20/1 288/21/1
f 289/16/1 290/14/1 291/21/1 292/22/1
f 293/18/1 294/17/1 295/23/1 296/24/1
f 297/19/1 298/18/1 299/24/1 300/25/1
f 301/20/1 302/19/1 303/25/1 304/26/1
f 305/21/1 306/20/1 307/26/1 308/27/1
f 309/22/1 310/21/1 311/27/1 312/28/1
f 313/24/1 314/23/1 315/29/1 316/30/1
f 317/25/1 318/24/1 319/30/1 320/31/1
f 321/26/1 322/25/1 323/31/1 324/32/1
f 325/27/1 326/26/1 327/32/1 328/33/1
f 329/28/1 330/27/1 331/33/1 332/34/1
f 333/30/1 334/29/1 335/35/1 336/36/1
f 337/31/1 338/30/1 339/36/1 340/37/1
f 341/32/1 342/31/1 343/37/1 344/38/1
f 345/33/1 346/32/1 347/38/1 348/39/1
f 349/34/1 350/33/1 351/39/1 352/40/1
f 353/53/1 354/54/1 355/55/1 356/56/1
f 357/57/1 358/53/1 359/56/1 360/58/1
f 361/59/1 362/57/1 363/58/1 364/60/1
f 365/61/1 366/59/1 367/60/1 368/62/1
f 369/63/1 370/61/1 371/62/1 372/64/1
f 373/65/1 374/63/1 375/64/1 376/66/1
f 377/67/1 378/65/1 379/66/1 380/68/1
f 381/69/1 382/67/1 383/68/1 384/70/1
f 385/71/1 386/69/1 387/70/1 388/72/1
f 389/5/1 390/6/1 391/7/1 392/8/1
f 393/9/1 394/5/1 395/8/1 396/10/1
f 397/11/1 398/9/1 399/10/1 400/12/1
f 401/13/1 402/11/1 403/12/1 404/14/1
f 405/15/1 406/13/1 407/14/1 408/16/1
f 409/5/1 410/6/1 411/7/1 412/8/1
f 413/9/1 414/5/1 415/8/1 416/10/1
f 417/11/1 418/9/1 419/10/1 420/12/1
f 421/13/1 422/11/1 423/12/1 424/14/1
f 425/15/1 426/13/1 427/14/1 428/16/1
f 429/5/1 430/6/1 431/7/1 432/8/1
f 433/9/1 434/5/1 435/8/1 436/10/1
f 437/11/1 438/9/1 439/10/1 440/12/1
f 441/13/1 442/11/1 443/12/1 444/14/1
f 445/15/1 446/13/1 447/14/1 448/16/1
f 449/5/1 450/6/1 451/7/1 452/8/1
f 453/9/1 454/5/1 455/8/1 456/10/1
f 457/11/1 458/9/1 459/10/1 460/12/1
f 461/13/1 462/11/1 463/12/1 464/14/1
f 465/15/1 466/13/1 467/14/1 468/16/1
f 469/56/1 470/55/1 471/73/1 472/74/1
f 473/58/1 474/56/1 475/74/1 476/75/1
f 477/60/1 478/58/1 479/75/1 480/76/1
f 481/62/1 482/60/1 483/76/1 484/77/1
f 485/64/1 486/62/1 487/77/1 488/78/1
f 489/66/1 490/64/1 491/78/1 492/79/1
f 493/68/1 494/66/1 495/79/1 496/80/1
f 497/70/1 498/68/1 499/80/1 500/81/1
f 501/72/1 502/70/1 503/81/1 504/82/1
f 505/8/1 506/7/1 507/17/1 508/18/1
f 509/10/1 510/8/1 511/18/1 512/19/1
f 513/12/1 514/10/1 515/19/1 516/20/1
f 517/14/1 518/12/1 519/20/1 520/21/1
f 521/16/1 522/14/1 523/21/1 524/22/1
f 525/8/1 526/7/1 527/17/1 528/18/1
f 529/10/1 530/8/1 531/18/1 532/19/1
f 533/12/1 534/10/1 535/19/1 536/20/1
f 537/14/1 538/12/1 539/20/1 540/21/1
f 541/16/1 542/14/1 543/21/1 544/22/1
f 545/8/1 546/7/1 547/17/1 548/18/1
f 549/10/1 550/8/1 551/18/1 552/19/1
f 553/12/1 554/10/1 555/19/1 556/20/1
f 557/14/1 558/12/1 559/20/1 560/21/1
f 561/16/1 562/14/1 563/21/1 564/22/1
f 565/8/1 566/7/1 567/17/1 568/18/1
f 569/10/1 570/8/1 571/18/1 572/19/1
f 573/12/1 574/10/1 575/19/1 576/20/1
f 577/14/1 578/12/1 579/20/1 580/21/1
f 581/16/1 582/14/1 583/21/1 584/22/1
f 585/74/1 586/73/1 587/83/1 588/84/1
f 589/75/1 590/74/1 591/84/1 592/85/1
f 593/76/1 594/75/1 595/85/1 596/86/1
f 597/77/1 598/76/1 599/86/1 600/87/1
f 601/78/1 602/77/1 603/87/1 604/88/1
f 605/79/1 606/78/1 607/88/1 608/89/1
f 609/80/1 610/79/1 611/89/1 612/90/1
f 613/81/1 614/80/1 615/90/1 616/91/1
f 617/82/1 618/81/1 619/91/1 620/92/1
f 621/18/1 622/17/1 623/23/1 624/24/1
f 625/19/1 626/18/1 627/24/1 628/25/1
f 629/20/1 630/19/1 631/25/1 632/26/1
f 633/21/1 634/20/1 635/26/1 636/27/1
f 637/22/1 638/21/1 639/27/1 640/28/1
f 641/18/1 642/17/1 643/23/1 644/24/1
f 645/19/1 646/18/1 647/24/1 648/25/1
f 649/20/1 650/19/1 651/25/1 652/26/1
f 653/21/1 654/20/1 655/26/1 656/27/1
f 657/22/1 658/21/1 659/27/1 660/28/1
f 661/18/1 662/17/1 663/23/1 664/24/1
f 665/19/1 666/18/1 667/24/1 668/25/1
f 669/20/1 670/19/1 671/25/1 672/26/1
f 673/21/1 674/20/1 675/26/1 676/27/1
f 677/22/1 678/21/1 679/27/1 680/28/1
f 681/18/1 682/17/1 683/23/1 684/24/1
f 685/19/1 686/18/1 687/24/1 688/25/1
f 689/20/1 690/19/1 691/25/1 692/26/1
f 693/21/1 694/20/1 695/26/1 696/27/1
f 697/22/1 698/21/1 699/27/1 700/28/1
f 701/24/1 702/23/1 703/29/1 704/30/1
f 705/25/1 706/24/1 707/30/1 708/31/1
f 709/26/1 710/25/1 711/31/1 712/32/1
f 713/27/1 714/26/1 715/32/1 716/33/1
f 717/28/1 718/27/1 719/33/1 720/34/1
f 721/24/1 722/23/1 723/29/1 724/30/1
f 725/25/1 726/24/1 727/30/1 728/31/1
f 729/26/1 730/25/1 731/31/1 732/32/1
f 733/27/1 734/26/1 735/32/1 736/33/1
f 737/28/1 738/27/1 739/33/1 740/34/1
f 741/24/1 742/23/1 743/29/1 744/30/1
f 745/25/1 746/24/1 747/30/1 748/31/1
f 749/26/1 750/25/1 751/31/1 752/32/1
f 753/27/1 754/26/1 755/32/1 756/33/1
f 757/28/1 758/27/1 759/33/1 760/34/1
f 761/24/1 762/23/1 763/29/1 764/30/1
f 765/25/1 766/24/1 767/30/1 768/31/1
f 769/26/1 770/25/1 771/31/1 772/32/1
f 773/27/1 774/26/1 775/32/1 776/33/1
f 777/28/1 778/27/1 779/33/1 780/34/1
f 781/30/1 782/29/1 783/35/1 784/36/1
f 785/31/1 786/30/1 787/36/1 788/37/1
f 789/32/1 790/31/1 791/37/1 792/38/1
f 793/33/1 794/32/1 795/38/1 796/39/1
f 797/34/1 798/33/1 799/39/1 800/40/1
f 801/30/1 802/29/1 803/35/1 804/36/1
f 805/31/1 806/30/1 807/36/1 808/37/1
f 809/32/1 810/31/1 811/37/1 812/38/1
f 813/33/1 814/32/1 815/38/1 816/39/1
f 817/34/1 818/33/1 819/39/1 820/40/1
f 821/30/1 822/29/1 823/35/1 824/36/1
f 825/31/1 826/30/1 827/36/1 828/37/1
f 829/32/1 830/31/1 831/37/1 832/38/1
f 833/33/1 834/32/1 835/38/1 836/39/1
f 837/34/1 838/33/1 839/39/1 840/40/1
f 841/30/1 842/29/1 843/35/1 844/36/1
f 845/31/1 846/30/1 847/36/1 848/37/1
f 849/32/1 850/31/1 851/37/1 852/38/1
f 853/33/1 854/32/1 855/38/1 856/39/1
f 857/34/1 858/33/1 859/39/1 860/40/1
f 861/93/1 862/94/1 863/95/1 864/96/1

